<?xml version="1.0" encoding="utf-8"?>
<!-- Generator: Adobe Illustrator 25.0.0, SVG Export Plug-In . SVG Version: 6.00 Build 0)  -->
<svg version="1.1" id="Layer_1" xmlns="http://www.w3.org/2000/svg" xmlns:xlink="http://www.w3.org/1999/xlink" x="0px" y="0px"
	 viewBox="0 0 512 512" style="enable-background:new 0 0 512 512;" xml:space="preserve">
<style type="text/css">
	.st0{fill:#E30613;}
	.st1{fill:#FFFFFF;}
</style>
<path class="st0" d="M256,512L256,512C114.6,512,0,397.4,0,256v0C0,114.6,114.6,0,256,0h0c141.4,0,256,114.6,256,256v0
	C512,397.4,397.4,512,256,512z"/>
<g>
	<polyline class="st1" points="385.8,324.2 385.8,64.5 250.3,205.4 282.4,239.1 339.3,179.9 339.3,306 	"/>
	<g>
		<polygon class="st1" points="172.7,179.9 256,266.6 288.1,233.1 126.2,64.5 126.2,218.3 275.5,371.8 266.6,381.3 126.2,236.7 
			126.2,304.6 267.4,447.5 340.2,371.7 172.7,199.4 		"/>
		<polyline class="st1" points="343.4,169.7 343.4,169.7 339.3,169.7 339.3,306 317.5,329.8 350,363.2 385.8,324.2 385.8,74.8 
			381.6,74.8 381.6,74.8 		"/>
	</g>
</g>
</svg>
