<?xml version="1.0" encoding="utf-8"?>
<!-- Generator: Adobe Illustrator 25.0.0, SVG Export Plug-In . SVG Version: 6.00 Build 0)  -->
<svg version="1.1" id="Layer_1" xmlns="http://www.w3.org/2000/svg" xmlns:xlink="http://www.w3.org/1999/xlink" x="0px" y="0px"
	 viewBox="0 0 2000 915.8" style="enable-background:new 0 0 2000 915.8;" xml:space="preserve">
<style type="text/css">
	.st0{display:none;}
	.st1{display:inline;}
	.st2{fill:#E30613;}
	.st3{fill:#141414;}
	.st4{fill:url(#SVGID_1_);}
	.st5{fill:url(#SVGID_2_);}
	.st6{fill:url(#SVGID_3_);}
	.st7{fill:url(#SVGID_4_);}
</style>
<g class="st0">
	<g class="st1">
		<g>
			<path class="st2" d="M831.7,560c5.1-3.6,12.3-5.4,21.4-5.4c7.6,0,15.9,1.5,24.6,4.5c8.9,3.1,17.8,7,26.4,11.8l3,1.6l20.1-40.7
				l-2.4-1.6c-9.4-6.2-20.2-11.6-32-16.1c-12-4.5-27.7-6.8-46.7-6.8l-0.1,0c-14.7,0.6-27.9,4-39.2,10c-11.4,6-20.4,14.3-26.7,24.7
				c-6.3,10.4-9.5,22.7-9.5,36.7c0,11.6,2.2,21.6,6.5,29.8c4.3,8,10,14.9,17,20.3c6.8,5.3,14.1,9.8,21.9,13.5
				c7.6,3.6,15.1,6.8,22.3,9.6c5.9,2.2,11.4,4.9,16.3,7.9c4.8,2.9,8.7,6.2,11.5,9.7c2.6,3.2,3.8,6.7,3.8,10.6
				c0,5.9-1.5,10.3-4.6,13.5c-3.3,3.3-7.4,5.8-12.4,7.2c-5.3,1.5-10.5,2.2-15.7,2.2c-5.2,0-10.9-0.8-17.2-2.4
				c-6.3-1.6-12.6-3.9-18.8-6.9c-6.2-2.9-12-6.4-17.3-10.2l-3-2.2l-23.5,41.4l2.5,1.7c8.4,5.8,17.2,10.6,26.1,14.4
				c9,3.8,18.3,6.6,27.6,8.4c9.3,1.8,18.6,2.7,27.6,2.7c17.7,0,32.8-3.3,45-9.7c12.2-6.4,21.7-15.1,28.1-25.6
				c6.4-10.6,9.6-22.2,9.6-34.5c0-11.5-1.7-21.4-5-29.5c-3.3-8-7.8-14.9-13.3-20.3c-5.5-5.4-11.7-9.9-18.6-13.5
				c-6.7-3.5-13.6-6.6-20.4-9.2c-7.2-2.7-14.3-5.7-21-9c-6.5-3.2-11.8-6.8-15.8-10.9c-3.7-3.7-5.5-7.7-5.5-12.3
				C824.6,568.4,826.9,563.4,831.7,560z"/>
			<path class="st2" d="M1097.4,633.9c-6.5-11.6-15.9-20.9-27.9-27.6c-12-6.6-26.3-10-42.6-10c-16,0-30.4,3.4-42.8,10
				c-12.5,6.7-22.3,15.9-29.2,27.5c-6.9,11.6-10.4,24.9-10.4,39.5c0,16.1,3.6,30.1,10.6,41.7c7,11.6,16.9,20.6,29.3,26.8
				c12.3,6.1,26.4,9.2,42,9.2c16.7,0,31.2-3.4,43.2-10.2c12-6.8,21.4-16.2,27.9-27.9c6.4-11.7,9.7-25,9.7-39.6
				C1107.1,658.8,1103.8,645.5,1097.4,633.9z M1052.3,691.7c-2.5,5.2-6,9.4-10.5,12.4c-4.5,3-9.9,4.5-16.2,4.5
				c-5.7,0-10.7-1.5-15.2-4.5c-4.5-3-8.2-7.2-10.9-12.5c-2.7-5.3-4.1-11.3-4.1-17.9c0-6.8,1.4-12.9,4-18c2.7-5.1,6.3-9.3,10.9-12.3
				c4.5-3,9.5-4.5,15.2-4.5c6.2,0,11.7,1.5,16.2,4.5c4.5,3,8.1,7.1,10.5,12.2c2.5,5.2,3.8,11.3,3.8,18.1
				C1056.1,680.3,1054.8,686.4,1052.3,691.7z"/>
			<rect x="1135.2" y="492" class="st2" width="50.7" height="255.3"/>
			<path class="st2" d="M1319.3,662.3c0,9.3-1.3,17.6-3.8,24.9c-2.4,7.1-5.9,12.8-10.2,16.8c-4.1,3.9-8.9,5.7-14.6,5.7
				c-5.5,0-9.1-1.4-11.2-4.2c-2.3-3.1-3.7-7.4-4.1-12.8v-89.9h-50.7v106.4l0,0.1c0.4,13.1,5.3,23.9,14.3,32.1
				c9,8.2,20.2,12.4,33.4,12.4c8.5,0,16.4-1.3,23.4-3.8c7-2.6,13.1-6.2,18.3-10.9c2.8-2.5,5.3-5.2,7.5-8.2l2.2,16.3h46.2V602.9
				h-50.7V662.3z"/>
			<polygon class="st2" points="1472.5,542.4 1421.8,542.4 1421.8,602.3 1400.3,602.3 1400.3,643.2 1421.8,643.2 1421.8,747.3 
				1472.5,747.3 1472.5,643.2 1505.9,643.2 1505.9,602.3 1472.5,602.3 			"/>
			<rect x="1533.1" y="602.9" class="st2" width="50.7" height="144.3"/>
			<path class="st2" d="M1578,538.8c-5.5-4.7-11.7-7.1-18.4-7.1c-6.6,0-12.9,2.4-18.6,7c-5.9,4.8-8.9,11.1-8.9,18.6
				c0,7.5,3,13.8,9,18.5c5.7,4.6,12,6.9,18.6,6.9c6.6,0,12.8-2.3,18.3-6.9c5.7-4.7,8.6-10.9,8.6-18.4
				C1586.6,549.9,1583.7,543.6,1578,538.8z"/>
			<path class="st2" d="M1764.8,633.9c-6.5-11.6-15.9-20.9-27.9-27.6c-12-6.6-26.3-10-42.6-10c-16,0-30.4,3.4-42.9,10
				c-12.5,6.7-22.3,15.9-29.2,27.5c-6.9,11.6-10.4,24.9-10.4,39.5c0,16.1,3.5,30.1,10.6,41.7c7,11.6,16.9,20.6,29.3,26.8
				c12.3,6.1,26.4,9.2,42,9.2c16.7,0,31.2-3.4,43.2-10.2c12-6.8,21.4-16.2,27.9-27.9c6.4-11.7,9.7-25,9.7-39.6
				C1774.5,658.8,1771.2,645.5,1764.8,633.9z M1719.7,691.7c-2.5,5.2-6,9.4-10.5,12.4c-4.5,3-9.9,4.5-16.1,4.5
				c-5.7,0-10.7-1.5-15.2-4.5c-4.5-3-8.2-7.2-10.9-12.5c-2.7-5.3-4.1-11.3-4.1-17.9c0-6.8,1.4-12.9,4.1-18
				c2.7-5.1,6.3-9.3,10.9-12.3c4.5-3,9.5-4.5,15.2-4.5c6.2,0,11.7,1.5,16.1,4.5c4.5,3,8.1,7.1,10.5,12.2c2.5,5.2,3.8,11.3,3.8,18.1
				C1723.5,680.3,1722.2,686.4,1719.7,691.7z"/>
			<path class="st2" d="M1936.5,608.6c-9.3-8.2-21-12.3-34.8-12.3c-13.4,0-24.9,2.9-34.2,8.5c-6.5,3.9-12,8.8-16.5,14.4l-2.3-16.3
				h-46.2v144.3h50.7v-59.4c0-9.5,1.3-17.9,3.9-25.1c2.5-7,6.1-12.6,10.7-16.6c4.5-3.9,9.5-5.8,15.5-5.8c6.1,0,10.4,1.5,12.8,4.3
				c2.6,3.1,3.9,7.3,4.1,12.6v89.9h50.7V640.8C1950.8,627.8,1945.9,616.9,1936.5,608.6z"/>
		</g>
		<g>
			<polygon class="st3" points="902.8,326.4 786.8,161.9 781.5,161.9 781.5,409.9 832.2,409.9 832.2,312.9 900,406.8 904,406.8 
				974.7,306.3 974.7,409.9 1027,409.9 1027,161.9 1021.4,161.9 			"/>
			<path class="st3" d="M1246.8,265.6l-2.1,10.6c-3.8-3.6-8.2-7.1-13.1-10.2c-7.6-4.8-18.6-7.3-32.8-7.3c-12.1,0-23.7,3.3-34.5,9.8
				c-10.7,6.5-19.5,15.7-26.1,27.5c-6.5,11.8-9.9,25.9-9.9,41.9c0,17.1,3.2,31.4,9.6,42.6c6.4,11.2,15.2,19.7,26.2,25.1
				c10.8,5.4,23,8.1,36.3,8.1c8.6,0,16.1-1.3,22.5-3.9c6.3-2.5,11.6-5.5,15.9-9c1.6-1.2,3-2.4,4.3-3.6V410h50.7V265.6H1246.8z
				 M1243.1,352.9c-2.1,4-4.5,7.3-7.2,9.9c-2.8,2.7-6.1,4.8-9.9,6.2c-3.8,1.4-8.2,2.2-13,2.2c-5.9,0-11.4-1.5-16.4-4.6
				c-5.1-3-9.2-7.3-12.2-12.7c-3.1-5.4-4.6-11.5-4.6-18.2c0-6.8,1.5-12.8,4.3-18c2.9-5.1,6.8-9.2,11.6-12.2
				c4.8-2.9,10.1-4.4,15.8-4.4c5.2,0,10,0.8,14.3,2.5c4.2,1.6,7.9,3.9,10.9,6.9c2.9,2.8,5.1,6.2,6.6,10.1V352.9z"/>
			<path class="st3" d="M1521,265.6l-2.5,8c-4.4-3.7-10-6.9-16.7-9.5c-9.1-3.6-19.9-5.4-32.3-5.4c-12.5,0-24.6,3.4-35.8,10.3
				c-11.1,6.8-20.3,16.1-27.3,27.8c-7,11.7-10.6,25.3-10.6,40.3c0,14.6,3.3,27.8,9.9,39.3c6.6,11.5,15.5,20.7,26.5,27.3
				c11.1,6.7,23.3,10.1,36.2,10.1c14.8,0,27.1-2.9,36.4-8.5c4.6-2.8,8.5-5.8,11.7-9.1v10c0,6.2-1.6,11.2-4.8,15.3
				c-3.3,4.2-7.7,7.4-13.2,9.6c-5.6,2.3-11.7,3.4-18.2,3.4c-9.8,0-17.8-1.9-23.6-5.6c-6.2-4-11.8-8.2-16.4-12.4l-2.5-2.3l-30.2,35.4
				l2.6,2.1c4.6,3.8,10,7.9,15.9,12.1c6.1,4.4,13.6,8.1,22.4,11.1c8.8,3,19.7,4.6,32.4,4.6c15.6,0,30-3.1,42.9-9.3
				c12.9-6.2,23.5-14.8,31.3-25.6c8-10.9,12-23.6,12-37.7V265.6H1521z M1516.7,352.8c-2.2,3.9-5,7.2-8.1,9.8
				c-3.3,2.8-7.2,4.9-11.5,6.3c-4.4,1.5-9.5,2.2-15.2,2.2c-6.5,0-12.5-1.5-17.7-4.6c-5.2-3-9.5-7.3-12.5-12.7
				c-3.1-5.4-4.6-11.5-4.6-18.2c0-6.7,1.5-12.7,4.6-17.9c3-5.1,7.2-9.3,12.5-12.2c5.3-3,11.2-4.5,17.8-4.5c5.7,0,10.9,0.8,15.4,2.5
				c4.5,1.6,8.6,4,12.1,7c3.2,2.8,5.7,6.1,7.4,10V352.8z"/>
			<g>
				<path class="st3" d="M1714.9,201.5L1714.9,201.5c-5.5-4.7-11.7-7.1-18.4-7.1c-6.6,0-12.9,2.4-18.6,7c-5.9,4.8-8.9,11.1-8.9,18.6
					c0,7.5,3,13.8,9,18.5c5.7,4.6,12,6.9,18.6,6.9c6.6,0,12.8-2.3,18.3-6.9c5.7-4.7,8.6-10.9,8.6-18.4
					C1723.5,212.5,1720.6,206.3,1714.9,201.5z"/>
				<rect x="1669.9" y="265.6" class="st3" width="50.7" height="144.3"/>
			</g>
			<path class="st3" d="M1918.9,364.1c-2.6,2.2-5.8,4-9.5,5.2l0,0c-3.7,1.2-7.9,1.9-12.4,1.9c-6.9,0-13-1.5-18-4.4
				c-5-2.9-9-7-11.9-12.2c-2.9-5.2-4.3-10.9-4.3-17c0-6.6,1.4-12.4,4-17.4c2.7-4.9,6.3-8.9,10.8-11.7c4.6-2.8,9.5-4.2,15-4.2
				c6.4,0,12,1.1,16.7,3.3c4.9,2.3,8.8,4.6,11.5,6.7l2.6,2.1l25.3-33.5l-2.4-2c-6.8-5.7-15-10.3-24.5-13.8
				c-9.5-3.5-20.7-5.2-33.4-5.2c-12.9,0-25.3,3-36.9,8.9c-11.7,5.9-21.3,14.6-28.6,25.9c-7.2,11.3-10.9,25.1-10.9,41
				c0,15.9,3.4,29.6,10.1,40.9c6.7,11.3,16.3,20.1,28.5,26.2c12.1,6,26.4,9,42.6,9c9.1,0,18.5-1.5,28-4.6c9.5-3,17.5-7.2,23.9-12.2
				l2.6-2l-26.2-33L1918.9,364.1z"/>
		</g>
	</g>
	<g class="st1">
		<linearGradient id="SVGID_1_" gradientUnits="userSpaceOnUse" x1="734.6608" y1="200.4388" x2="489.2386" y2="489.1707">
			<stop  offset="0" style="stop-color:#E30613"/>
			<stop  offset="0.3257" style="stop-color:#E10613"/>
			<stop  offset="0.4911" style="stop-color:#D90512"/>
			<stop  offset="0.6204" style="stop-color:#CC0511"/>
			<stop  offset="0.731" style="stop-color:#B90410"/>
			<stop  offset="0.8296" style="stop-color:#A0020F"/>
			<stop  offset="0.9184" style="stop-color:#83010D"/>
			<stop  offset="0.9481" style="stop-color:#77000C"/>
		</linearGradient>
		<polyline class="st4" points="657.1,617.6 657.1,9.2 339.6,339.4 414.8,418.4 548.1,279.7 548.1,575.1 		"/>
		<g>
			<polygon class="st2" points="157.9,279.7 353,482.6 428.3,404.4 49,9.2 49,369.6 398.8,729.3 377.8,751.5 49,412.7 49,571.7 
				379.8,906.6 550.3,728.8 157.9,325.4 			"/>
			<polyline class="st2" points="557.8,255.6 557.8,255.6 548.1,255.6 548.1,575.1 497.1,630.9 573.2,709.1 657.1,617.6 657.1,33.3 
				647.4,33.3 647.4,33.3 			"/>
		</g>
	</g>
</g>
<g>
	<g>
		<g>
			<path class="st2" d="M849.2,558.2c5-3.5,12.1-5.3,21.1-5.3c7.4,0,15.6,1.5,24.2,4.5c8.8,3,17.5,6.9,26,11.5l2.9,1.6l19.8-39.9
				l-2.4-1.6c-9.3-6.1-19.8-11.4-31.4-15.8c-11.8-4.5-27.2-6.7-45.9-6.7l-0.1,0c-14.5,0.6-27.4,3.9-38.5,9.8
				c-11.2,5.9-20,14.1-26.2,24.2c-6.2,10.2-9.3,22.3-9.3,36c0,11.4,2.2,21.3,6.4,29.2c4.2,7.9,9.8,14.6,16.7,19.9
				c6.7,5.2,13.9,9.6,21.5,13.2c7.5,3.5,14.8,6.7,21.9,9.4c5.8,2.2,11.2,4.8,16,7.8c4.7,2.9,8.5,6.1,11.2,9.5
				c2.5,3.2,3.8,6.5,3.8,10.4c0,5.8-1.5,10.1-4.5,13.2c-3.2,3.3-7.3,5.7-12.2,7c-5.2,1.5-10.3,2.2-15.4,2.2
				c-5.1,0-10.7-0.8-16.8-2.4c-6.2-1.6-12.4-3.9-18.5-6.8c-6.1-2.9-11.8-6.3-17-10.1l-2.9-2.1l-23,40.7l2.4,1.7
				c8.2,5.7,16.8,10.4,25.7,14.1c8.8,3.7,18,6.5,27.1,8.2c9.2,1.8,18.3,2.7,27.1,2.7c17.4,0,32.3-3.2,44.2-9.5
				c12-6.3,21.3-14.8,27.6-25.2c6.3-10.4,9.4-21.8,9.4-33.9c0-11.3-1.6-21-4.9-28.9c-3.2-7.9-7.7-14.6-13.1-20
				c-5.4-5.3-11.5-9.7-18.3-13.2c-6.6-3.4-13.3-6.5-20-9c-7.1-2.6-14-5.6-20.6-8.8c-6.4-3.1-11.6-6.7-15.6-10.7
				c-3.6-3.6-5.4-7.6-5.4-12.1C842.2,566.4,844.5,561.5,849.2,558.2z"/>
			<path class="st2" d="M1110,630.8c-6.4-11.4-15.6-20.5-27.4-27.1c-11.8-6.5-25.9-9.8-41.8-9.8c-15.7,0-29.9,3.3-42.1,9.8
				c-12.2,6.5-21.9,15.6-28.6,27c-6.8,11.4-10.2,24.4-10.2,38.8c0,15.8,3.5,29.6,10.4,41c6.9,11.4,16.6,20.3,28.7,26.3
				c12.1,6,25.9,9,41.2,9c16.4,0,30.7-3.4,42.5-10c11.8-6.7,21-15.9,27.4-27.4c6.3-11.5,9.5-24.6,9.5-38.9
				C1119.6,655.2,1116.4,642.2,1110,630.8z M1065.8,687.5c-2.4,5.1-5.9,9.2-10.3,12.2c-4.4,2.9-9.7,4.4-15.9,4.4
				c-5.6,0-10.5-1.4-14.9-4.4c-4.5-3-8.1-7.1-10.7-12.2c-2.6-5.2-4-11.1-4-17.6c0-6.7,1.3-12.6,4-17.7c2.6-5,6.2-9.1,10.7-12.1
				c4.5-3,9.3-4.4,14.9-4.4c6.1,0,11.5,1.5,15.9,4.4c4.4,3,7.9,7,10.3,12c2.5,5.1,3.7,11.1,3.7,17.8
				C1069.5,676.3,1068.2,682.2,1065.8,687.5z"/>
			<rect x="1147.2" y="491.4" class="st2" width="49.8" height="250.7"/>
			<path class="st2" d="M1328,658.7c0,9.1-1.2,17.3-3.7,24.5c-2.4,7-5.8,12.5-10,16.5c-4.1,3.8-8.8,5.6-14.4,5.6
				c-5.4,0-9-1.3-11-4.1c-2.3-3.1-3.6-7.3-4-12.6v-88.2h-49.8v104.5l0,0.1c0.4,12.8,5.2,23.4,14.1,31.5c8.8,8.1,19.9,12.1,32.8,12.1
				c8.4,0,16.1-1.3,22.9-3.8c6.9-2.5,12.9-6.1,17.9-10.7c2.7-2.5,5.2-5.1,7.4-8l2.2,16h45.3V600.3H1328V658.7z"/>
			<polygon class="st2" points="1478.4,540.9 1428.6,540.9 1428.6,599.7 1407.6,599.7 1407.6,639.9 1428.6,639.9 1428.6,742.1 
				1478.4,742.1 1478.4,639.9 1511.2,639.9 1511.2,599.7 1478.4,599.7 			"/>
			<rect x="1537.9" y="600.3" class="st2" width="49.8" height="141.7"/>
			<path class="st2" d="M1582,537.3c-5.4-4.6-11.5-7-18-7c-6.5,0-12.7,2.3-18.3,6.9c-5.8,4.8-8.8,10.9-8.8,18.3
				c0,7.4,3,13.5,8.8,18.2c5.6,4.5,11.8,6.7,18.3,6.7c6.5,0,12.6-2.3,18-6.8c5.6-4.6,8.4-10.7,8.4-18.1
				C1590.5,548.2,1587.6,542.1,1582,537.3z"/>
			<path class="st2" d="M1765.4,630.8c-6.4-11.4-15.6-20.5-27.4-27.1c-11.8-6.5-25.9-9.8-41.8-9.8c-15.7,0-29.9,3.3-42.1,9.8
				c-12.2,6.5-21.9,15.6-28.6,27c-6.8,11.4-10.2,24.4-10.2,38.8c0,15.8,3.5,29.6,10.4,41c6.9,11.4,16.6,20.3,28.7,26.3
				c12,6,25.9,9,41.2,9c16.4,0,30.7-3.4,42.5-10c11.8-6.7,21-15.9,27.4-27.4c6.3-11.5,9.5-24.6,9.5-38.9
				C1775,655.2,1771.8,642.2,1765.4,630.8z M1721.2,687.5c-2.4,5.1-5.9,9.2-10.3,12.2c-4.4,2.9-9.7,4.4-15.9,4.4
				c-5.6,0-10.5-1.4-14.9-4.4c-4.5-3-8.1-7.1-10.7-12.2c-2.6-5.2-4-11.1-4-17.6c0-6.7,1.3-12.6,4-17.7c2.6-5,6.2-9.1,10.7-12.1
				c4.5-3,9.4-4.4,14.9-4.4c6.1,0,11.5,1.5,15.9,4.4c4.4,3,7.9,7,10.3,12c2.5,5.1,3.7,11.1,3.7,17.8
				C1724.9,676.3,1723.6,682.2,1721.2,687.5z"/>
			<path class="st2" d="M1934.1,605.9c-9.1-8-20.6-12.1-34.2-12.1c-13.1,0-24.4,2.8-33.6,8.4c-6.4,3.9-11.8,8.6-16.2,14.2l-2.3-16
				h-45.3v141.7h49.8v-58.3c0-9.3,1.3-17.6,3.8-24.6c2.5-6.9,6-12.4,10.5-16.3c4.4-3.8,9.4-5.7,15.2-5.7c6,0,10.2,1.4,12.5,4.2
				c2.5,3,3.9,7.2,4.1,12.4v88.3h49.8V637.5C1948.1,624.7,1943.3,614.1,1934.1,605.9z"/>
		</g>
		<g>
			<polygon class="st3" points="1039.5,328.8 925.6,167.2 920.4,167.2 920.4,410.8 970.2,410.8 970.2,315.6 1036.8,407.7 
				1040.8,407.7 1110.2,309 1110.2,410.8 1161.5,410.8 1161.5,167.2 1156,167.2 			"/>
			<path class="st3" d="M1312.6,269.1l-2.1,10.4c-3.8-3.6-8.1-6.9-12.9-10c-7.4-4.8-18.3-7.2-32.2-7.2c-11.9,0-23.3,3.2-33.9,9.6
				c-10.5,6.4-19.2,15.5-25.6,27c-6.4,11.6-9.7,25.4-9.7,41.2c0,16.8,3.2,30.9,9.4,41.8c6.3,11,14.9,19.3,25.7,24.7
				c10.6,5.3,22.6,7.9,35.6,7.9c8.4,0,15.8-1.3,22.1-3.8c6.1-2.5,11.4-5.4,15.7-8.8c1.5-1.2,2.9-2.4,4.2-3.5v12.4h49.8V269.1H1312.6
				z M1308.9,354.8c-2,3.9-4.4,7.2-7.1,9.8c-2.8,2.7-6,4.7-9.7,6.1c-3.7,1.4-8,2.1-12.8,2.1c-5.8,0-11.2-1.5-16.1-4.5
				c-5-3-9-7.2-12-12.5c-3-5.3-4.5-11.3-4.5-17.9c0-6.6,1.4-12.6,4.2-17.6c2.8-5,6.6-9.1,11.4-12c4.7-2.9,9.9-4.3,15.5-4.3
				c5.1,0,9.8,0.8,14,2.4c4.1,1.6,7.7,3.9,10.7,6.7c2.8,2.7,5,6,6.5,9.9V354.8z"/>
			<path class="st3" d="M1509.1,269.1l-2.5,7.9c-4.3-3.6-9.8-6.7-16.4-9.4c-8.9-3.5-19.6-5.3-31.7-5.3c-12.3,0-24.1,3.4-35.1,10.1
				c-10.9,6.6-19.9,15.8-26.8,27.3c-6.9,11.5-10.4,24.8-10.4,39.6c0,14.3,3.3,27.3,9.7,38.6c6.4,11.3,15.2,20.3,26.1,26.8
				c10.9,6.6,22.8,9.9,35.6,9.9c14.6,0,26.6-2.8,35.7-8.4c4.5-2.7,8.3-5.7,11.5-9v9.8c0,6.1-1.5,11-4.7,15
				c-3.3,4.1-7.6,7.2-12.9,9.4c-5.5,2.2-11.5,3.3-17.8,3.3c-9.6,0-17.5-1.9-23.2-5.5c-6.1-3.9-11.5-8-16.1-12.2l-2.5-2.2l-29.7,34.7
				l2.5,2.1c4.5,3.7,9.8,7.7,15.6,11.9c6,4.3,13.4,8,22,10.9c8.7,3,19.4,4.5,31.9,4.5c15.3,0,29.4-3.1,42.1-9.1
				c12.7-6.1,23.1-14.6,30.8-25.2c7.8-10.7,11.8-23.2,11.8-37V269.1H1509.1z M1504.9,354.7c-2.2,3.9-4.9,7.1-8,9.7
				c-3.3,2.7-7.1,4.8-11.3,6.2c-4.3,1.4-9.3,2.2-14.9,2.2c-6.4,0-12.3-1.5-17.4-4.5c-5.2-3-9.3-7.2-12.3-12.4
				c-3-5.3-4.5-11.3-4.5-17.9c0-6.6,1.5-12.5,4.5-17.5c3-5.1,7.1-9.1,12.3-12c5.2-2.9,11-4.4,17.5-4.4c5.6,0,10.7,0.8,15.2,2.4
				c4.5,1.6,8.4,3.9,11.8,6.8c3.2,2.7,5.6,6,7.2,9.8V354.7z"/>
			<path class="st3" d="M1637,206.1L1637,206.1c-5.4-4.6-11.5-7-18-7c-6.5,0-12.7,2.3-18.3,6.9c-5.8,4.7-8.8,10.9-8.8,18.3
				c0,7.4,3,13.5,8.8,18.2c5.6,4.5,11.8,6.7,18.3,6.7c6.5,0,12.6-2.3,18-6.8c5.6-4.6,8.4-10.7,8.4-18.1
				C1645.4,217,1642.5,210.8,1637,206.1z"/>
			<rect x="1592.8" y="269.1" class="st3" width="49.8" height="141.7"/>
			<path class="st3" d="M1775,365.8c-2.6,2.2-5.7,3.9-9.3,5.1l0,0c-3.7,1.2-7.7,1.8-12.1,1.8c-6.8,0-12.8-1.5-17.7-4.4
				c-4.9-2.9-8.9-6.9-11.7-11.9c-2.8-5.1-4.2-10.7-4.2-16.7c0-6.4,1.3-12.2,3.9-17c2.6-4.8,6.2-8.7,10.6-11.5
				c4.5-2.8,9.3-4.2,14.7-4.2c6.3,0,11.8,1.1,16.4,3.3c4.8,2.3,8.6,4.5,11.3,6.6l2.6,2l24.9-32.9l-2.3-2c-6.7-5.6-14.7-10.1-24-13.6
				c-9.3-3.4-20.4-5.2-32.8-5.2c-12.6,0-24.8,2.9-36.3,8.7c-11.5,5.8-20.9,14.4-28,25.4c-7.1,11.1-10.7,24.7-10.7,40.3
				c0,15.6,3.3,29.1,9.9,40.2c6.6,11.1,16,19.8,28,25.7c11.9,5.9,25.9,8.8,41.8,8.8c9,0,18.2-1.5,27.5-4.5c9.3-3,17.2-7,23.5-12
				l2.5-2l-25.8-32.4L1775,365.8z"/>
		</g>
	</g>
	<g>
		<linearGradient id="SVGID_2_" gradientUnits="userSpaceOnUse" x1="725.0137" y1="205.0785" x2="484.0143" y2="488.6071">
			<stop  offset="0" style="stop-color:#E30613"/>
			<stop  offset="0.3257" style="stop-color:#E10613"/>
			<stop  offset="0.4911" style="stop-color:#D90512"/>
			<stop  offset="0.6204" style="stop-color:#CC0511"/>
			<stop  offset="0.731" style="stop-color:#B90410"/>
			<stop  offset="0.8296" style="stop-color:#A0020F"/>
			<stop  offset="0.9184" style="stop-color:#83010D"/>
			<stop  offset="0.9481" style="stop-color:#77000C"/>
		</linearGradient>
		<polyline class="st5" points="648.8,614.7 648.8,17.3 337.1,341.5 410.9,419.1 541.8,282.9 541.8,573 		"/>
		<g>
			<polygon class="st2" points="158.6,282.9 350.2,482.2 424.1,405.3 51.7,17.3 51.7,371.2 395.2,724.4 374.6,746.2 51.7,413.5 
				51.7,569.6 376.5,898.5 544,724 158.6,327.8 			"/>
			<polyline class="st2" points="551.4,259.3 551.4,259.3 541.8,259.3 541.8,573 491.8,627.7 566.5,704.5 648.8,614.7 648.8,40.9 
				639.3,40.9 639.3,40.9 			"/>
		</g>
	</g>
</g>
<g class="st0">
	<g class="st1">
		<g>
			<path class="st2" d="M848.2,558.2c5-3.5,12.1-5.3,21.1-5.3c7.4,0,15.6,1.5,24.2,4.5c8.8,3,17.5,6.9,26,11.5l2.9,1.6l19.8-39.9
				l-2.4-1.6c-9.3-6.1-19.8-11.4-31.4-15.8c-11.8-4.5-27.2-6.7-45.9-6.7l-0.1,0c-14.5,0.6-27.4,3.9-38.5,9.8
				c-11.2,5.9-20,14.1-26.2,24.2c-6.2,10.2-9.3,22.3-9.3,36c0,11.4,2.2,21.3,6.4,29.2c4.2,7.9,9.8,14.6,16.7,19.9
				c6.7,5.2,13.9,9.6,21.5,13.2c7.5,3.5,14.8,6.7,21.9,9.4c5.8,2.2,11.2,4.8,16,7.8c4.7,2.9,8.5,6.1,11.2,9.5
				c2.5,3.2,3.8,6.5,3.8,10.4c0,5.8-1.5,10.1-4.5,13.2c-3.2,3.3-7.3,5.7-12.2,7c-5.2,1.5-10.3,2.2-15.4,2.2
				c-5.1,0-10.7-0.8-16.8-2.4c-6.2-1.6-12.4-3.9-18.5-6.8c-6.1-2.9-11.8-6.3-17-10.1l-2.9-2.1l-23,40.7l2.4,1.7
				c8.2,5.7,16.8,10.4,25.7,14.1c8.8,3.7,18,6.5,27.1,8.2c9.2,1.8,18.3,2.7,27.1,2.7c17.4,0,32.3-3.2,44.2-9.5
				c12-6.3,21.3-14.8,27.6-25.2c6.3-10.4,9.4-21.8,9.4-33.9c0-11.3-1.6-21-4.9-28.9c-3.2-7.9-7.7-14.6-13.1-20
				c-5.4-5.3-11.5-9.7-18.3-13.2c-6.6-3.4-13.3-6.5-20-9c-7.1-2.6-14-5.6-20.6-8.8c-6.4-3.1-11.6-6.7-15.6-10.7
				c-3.6-3.6-5.4-7.6-5.4-12.1C841.2,566.4,843.5,561.5,848.2,558.2z"/>
			<path class="st2" d="M1109,630.8c-6.4-11.4-15.6-20.5-27.4-27.1c-11.8-6.5-25.9-9.8-41.8-9.8c-15.7,0-29.9,3.3-42.1,9.8
				c-12.2,6.5-21.9,15.6-28.6,27c-6.8,11.4-10.2,24.4-10.2,38.8c0,15.8,3.5,29.6,10.4,41c6.9,11.4,16.6,20.3,28.7,26.3
				c12.1,6,25.9,9,41.2,9c16.4,0,30.7-3.4,42.5-10c11.8-6.7,21-15.9,27.4-27.4c6.3-11.5,9.5-24.6,9.5-38.9
				C1118.6,655.2,1115.4,642.2,1109,630.8z M1064.7,687.5c-2.4,5.1-5.9,9.2-10.3,12.2c-4.4,2.9-9.7,4.4-15.9,4.4
				c-5.6,0-10.5-1.4-14.9-4.4c-4.5-3-8.1-7.1-10.7-12.2c-2.6-5.2-4-11.1-4-17.6c0-6.7,1.3-12.6,4-17.7c2.6-5,6.2-9.1,10.7-12.1
				c4.5-3,9.3-4.4,14.9-4.4c6.1,0,11.5,1.5,15.9,4.4c4.4,3,7.9,7,10.3,12c2.5,5.1,3.7,11.1,3.7,17.8
				C1068.5,676.3,1067.2,682.2,1064.7,687.5z"/>
			<rect x="1146.2" y="491.4" class="st2" width="49.8" height="250.7"/>
			<path class="st2" d="M1327,658.7c0,9.1-1.2,17.3-3.7,24.5c-2.4,7-5.8,12.5-10,16.5c-4.1,3.8-8.8,5.6-14.4,5.6
				c-5.4,0-9-1.3-11-4.1c-2.3-3.1-3.6-7.3-4-12.6v-88.2h-49.8v104.5l0,0.1c0.4,12.8,5.2,23.4,14.1,31.5c8.8,8.1,19.9,12.1,32.8,12.1
				c8.4,0,16.1-1.3,22.9-3.8c6.9-2.5,12.9-6.1,17.9-10.7c2.7-2.5,5.2-5.1,7.4-8l2.2,16h45.3V600.3H1327V658.7z"/>
			<polygon class="st2" points="1477.4,540.9 1427.6,540.9 1427.6,599.7 1406.5,599.7 1406.5,639.9 1427.6,639.9 1427.6,742.1 
				1477.4,742.1 1477.4,639.9 1510.2,639.9 1510.2,599.7 1477.4,599.7 			"/>
			<rect x="1536.9" y="600.3" class="st2" width="49.8" height="141.7"/>
			<path class="st2" d="M1581,537.3c-5.4-4.6-11.5-7-18-7c-6.5,0-12.7,2.3-18.3,6.9c-5.8,4.8-8.8,10.9-8.8,18.3
				c0,7.4,3,13.5,8.8,18.2c5.6,4.5,11.8,6.7,18.3,6.7c6.5,0,12.6-2.3,18-6.8c5.6-4.6,8.4-10.7,8.4-18.1
				C1589.4,548.2,1586.6,542.1,1581,537.3z"/>
			<path class="st2" d="M1764.4,630.8c-6.4-11.4-15.6-20.5-27.4-27.1c-11.8-6.5-25.9-9.8-41.8-9.8c-15.7,0-29.9,3.3-42.1,9.8
				c-12.2,6.5-21.9,15.6-28.6,27c-6.8,11.4-10.2,24.4-10.2,38.8c0,15.8,3.5,29.6,10.4,41c6.9,11.4,16.6,20.3,28.7,26.3
				c12,6,25.9,9,41.2,9c16.4,0,30.7-3.4,42.5-10c11.8-6.7,21-15.9,27.4-27.4c6.3-11.5,9.5-24.6,9.5-38.9
				C1773.9,655.2,1770.7,642.2,1764.4,630.8z M1720.1,687.5c-2.4,5.1-5.9,9.2-10.3,12.2c-4.4,2.9-9.7,4.4-15.9,4.4
				c-5.6,0-10.5-1.4-14.9-4.4c-4.5-3-8.1-7.1-10.7-12.2c-2.6-5.2-4-11.1-4-17.6c0-6.7,1.3-12.6,4-17.7c2.6-5,6.2-9.1,10.7-12.1
				c4.5-3,9.4-4.4,14.9-4.4c6.1,0,11.5,1.5,15.9,4.4c4.4,3,7.9,7,10.3,12c2.5,5.1,3.7,11.1,3.7,17.8
				C1723.8,676.3,1722.6,682.2,1720.1,687.5z"/>
			<path class="st2" d="M1933.1,605.9c-9.1-8-20.6-12.1-34.2-12.1c-13.1,0-24.4,2.8-33.6,8.4c-6.4,3.9-11.8,8.6-16.2,14.2l-2.3-16
				h-45.3v141.7h49.8v-58.3c0-9.3,1.3-17.6,3.8-24.6c2.5-6.9,6-12.4,10.5-16.3c4.4-3.8,9.4-5.7,15.2-5.7c6,0,10.2,1.4,12.5,4.2
				c2.5,3,3.9,7.2,4.1,12.4v88.3h49.8V637.5C1947.1,624.7,1942.3,614.1,1933.1,605.9z"/>
		</g>
		<g>
			<polygon class="st3" points="894.6,328.8 780.7,167.2 775.5,167.2 775.5,410.8 825.3,410.8 825.3,315.6 891.9,407.7 895.9,407.7 
				965.3,309 965.3,410.8 1016.6,410.8 1016.6,167.2 1011.1,167.2 			"/>
			<path class="st3" d="M1167.7,269.1l-2.1,10.4c-3.8-3.6-8.1-6.9-12.9-10c-7.4-4.8-18.3-7.2-32.2-7.2c-11.9,0-23.3,3.2-33.9,9.6
				c-10.5,6.4-19.2,15.5-25.6,27c-6.4,11.6-9.7,25.4-9.7,41.2c0,16.8,3.2,30.9,9.4,41.8c6.3,11,14.9,19.3,25.7,24.7
				c10.6,5.3,22.6,7.9,35.6,7.9c8.4,0,15.8-1.3,22.1-3.8c6.1-2.5,11.4-5.4,15.7-8.8c1.5-1.2,2.9-2.4,4.2-3.5v12.4h49.8V269.1H1167.7
				z M1164,354.8c-2,3.9-4.4,7.2-7.1,9.8c-2.8,2.7-6,4.7-9.7,6.1c-3.7,1.4-8,2.1-12.8,2.1c-5.8,0-11.2-1.5-16.1-4.5
				c-5-3-9-7.2-12-12.5c-3-5.3-4.5-11.3-4.5-17.9c0-6.6,1.4-12.6,4.2-17.6c2.8-5,6.6-9.1,11.4-12c4.7-2.9,9.9-4.3,15.5-4.3
				c5.1,0,9.8,0.8,14,2.4c4.1,1.6,7.7,3.9,10.7,6.7c2.8,2.7,5,6,6.5,9.9V354.8z"/>
			<path class="st3" d="M1364.2,269.1l-2.5,7.9c-4.3-3.6-9.8-6.7-16.4-9.4c-8.9-3.5-19.6-5.3-31.7-5.3c-12.3,0-24.1,3.4-35.1,10.1
				c-10.9,6.6-19.9,15.8-26.8,27.3c-6.9,11.5-10.4,24.8-10.4,39.6c0,14.3,3.3,27.3,9.7,38.6c6.4,11.3,15.2,20.3,26.1,26.8
				c10.9,6.6,22.8,9.9,35.6,9.9c14.6,0,26.6-2.8,35.7-8.4c4.5-2.7,8.3-5.7,11.5-9v9.8c0,6.1-1.5,11-4.7,15
				c-3.3,4.1-7.6,7.2-12.9,9.4c-5.5,2.2-11.5,3.3-17.8,3.3c-9.6,0-17.5-1.9-23.2-5.5c-6.1-3.9-11.5-8-16.1-12.2l-2.5-2.2l-29.7,34.7
				l2.5,2.1c4.5,3.7,9.8,7.7,15.6,11.9c6,4.3,13.4,8,22,10.9c8.7,3,19.4,4.5,31.9,4.5c15.3,0,29.4-3.1,42.1-9.1
				c12.7-6.1,23.1-14.6,30.8-25.2c7.8-10.7,11.8-23.2,11.8-37V269.1H1364.2z M1360,354.7c-2.2,3.9-4.9,7.1-8,9.7
				c-3.3,2.7-7.1,4.8-11.3,6.2c-4.3,1.4-9.3,2.2-14.9,2.2c-6.4,0-12.3-1.5-17.4-4.5c-5.2-3-9.3-7.2-12.3-12.4
				c-3-5.3-4.5-11.3-4.5-17.9c0-6.6,1.5-12.5,4.5-17.5c3-5.1,7.1-9.1,12.3-12c5.2-2.9,11-4.4,17.5-4.4c5.6,0,10.7,0.8,15.2,2.4
				c4.5,1.6,8.4,3.9,11.8,6.8c3.2,2.7,5.6,6,7.2,9.8V354.7z"/>
			<path class="st3" d="M1492.1,206.1L1492.1,206.1c-5.4-4.6-11.5-7-18-7c-6.5,0-12.7,2.3-18.3,6.9c-5.8,4.7-8.8,10.9-8.8,18.3
				c0,7.4,3,13.5,8.8,18.2c5.6,4.5,11.8,6.7,18.3,6.7c6.5,0,12.6-2.3,18-6.8c5.6-4.6,8.4-10.7,8.4-18.1
				C1500.5,217,1497.7,210.8,1492.1,206.1z"/>
			<rect x="1447.9" y="269.1" class="st3" width="49.8" height="141.7"/>
			<path class="st3" d="M1630.1,365.8c-2.6,2.2-5.7,3.9-9.3,5.1l0,0c-3.7,1.2-7.7,1.8-12.1,1.8c-6.8,0-12.8-1.5-17.7-4.4
				c-4.9-2.9-8.9-6.9-11.7-11.9c-2.8-5.1-4.2-10.7-4.2-16.7c0-6.4,1.3-12.2,3.9-17c2.6-4.8,6.2-8.7,10.6-11.5
				c4.5-2.8,9.3-4.2,14.7-4.2c6.3,0,11.8,1.1,16.4,3.3c4.8,2.3,8.6,4.5,11.3,6.6l2.6,2l24.9-32.9l-2.3-2c-6.7-5.6-14.7-10.1-24-13.6
				c-9.3-3.4-20.4-5.2-32.8-5.2c-12.6,0-24.8,2.9-36.3,8.7c-11.5,5.8-20.9,14.4-28,25.4c-7.1,11.1-10.7,24.7-10.7,40.3
				c0,15.6,3.3,29.1,9.9,40.2c6.6,11.1,16,19.8,28,25.7c11.9,5.9,25.9,8.8,41.8,8.8c9,0,18.2-1.5,27.5-4.5c9.3-3,17.2-7,23.5-12
				l2.5-2l-25.8-32.4L1630.1,365.8z"/>
		</g>
	</g>
	<g class="st1">
		<linearGradient id="SVGID_3_" gradientUnits="userSpaceOnUse" x1="726.0368" y1="205.0785" x2="485.0374" y2="488.6071">
			<stop  offset="0" style="stop-color:#E30613"/>
			<stop  offset="0.3257" style="stop-color:#E10613"/>
			<stop  offset="0.4911" style="stop-color:#D90512"/>
			<stop  offset="0.6204" style="stop-color:#CC0511"/>
			<stop  offset="0.731" style="stop-color:#B90410"/>
			<stop  offset="0.8296" style="stop-color:#A0020F"/>
			<stop  offset="0.9184" style="stop-color:#83010D"/>
			<stop  offset="0.9481" style="stop-color:#77000C"/>
		</linearGradient>
		<polyline class="st6" points="649.8,614.7 649.8,17.3 338.1,341.5 411.9,419.1 542.9,282.9 542.9,573 		"/>
		<g>
			<polygon class="st2" points="159.7,282.9 351.3,482.2 425.2,405.3 52.7,17.3 52.7,371.2 396.2,724.4 375.6,746.2 52.7,413.5 
				52.7,569.6 377.5,898.5 545,724 159.7,327.8 			"/>
			<polyline class="st2" points="552.4,259.3 552.4,259.3 542.9,259.3 542.9,573 492.8,627.7 567.5,704.5 649.8,614.7 649.8,40.9 
				640.3,40.9 640.3,40.9 			"/>
		</g>
	</g>
	<g class="st1">
		<g>
			<g>
				<path class="st2" d="M848.2,558.2c5-3.5,12.1-5.3,21.1-5.3c7.4,0,15.6,1.5,24.2,4.5c8.8,3,17.5,6.9,26,11.5l2.9,1.6l19.8-39.9
					l-2.4-1.6c-9.3-6.1-19.8-11.4-31.4-15.8c-11.8-4.5-27.2-6.7-45.9-6.7l-0.1,0c-14.5,0.6-27.4,3.9-38.5,9.8
					c-11.2,5.9-20,14.1-26.2,24.2c-6.2,10.2-9.3,22.3-9.3,36c0,11.4,2.2,21.3,6.4,29.2c4.2,7.9,9.8,14.6,16.7,19.9
					c6.7,5.2,13.9,9.6,21.5,13.2c7.5,3.5,14.8,6.7,21.9,9.4c5.8,2.2,11.2,4.8,16,7.8c4.7,2.9,8.5,6.1,11.2,9.5
					c2.5,3.2,3.8,6.5,3.8,10.4c0,5.8-1.5,10.1-4.5,13.2c-3.2,3.3-7.3,5.7-12.2,7c-5.2,1.5-10.3,2.2-15.4,2.2
					c-5.1,0-10.7-0.8-16.8-2.4c-6.2-1.6-12.4-3.9-18.5-6.8c-6.1-2.9-11.8-6.3-17-10.1l-2.9-2.1l-23,40.7l2.4,1.7
					c8.2,5.7,16.8,10.4,25.7,14.1c8.8,3.7,18,6.5,27.1,8.2c9.2,1.8,18.3,2.7,27.1,2.7c17.4,0,32.3-3.2,44.2-9.5
					c12-6.3,21.3-14.8,27.6-25.2c6.3-10.4,9.4-21.8,9.4-33.9c0-11.3-1.6-21-4.9-28.9c-3.2-7.9-7.7-14.6-13.1-20
					c-5.4-5.3-11.5-9.7-18.3-13.2c-6.6-3.4-13.3-6.5-20-9c-7.1-2.6-14-5.6-20.6-8.8c-6.4-3.1-11.6-6.7-15.6-10.7
					c-3.6-3.6-5.4-7.6-5.4-12.1C841.2,566.4,843.5,561.5,848.2,558.2z"/>
				<path class="st2" d="M1109,630.8c-6.4-11.4-15.6-20.5-27.4-27.1c-11.8-6.5-25.9-9.8-41.8-9.8c-15.7,0-29.9,3.3-42.1,9.8
					c-12.2,6.5-21.9,15.6-28.6,27c-6.8,11.4-10.2,24.4-10.2,38.8c0,15.8,3.5,29.6,10.4,41c6.9,11.4,16.6,20.3,28.7,26.3
					c12.1,6,25.9,9,41.2,9c16.4,0,30.7-3.4,42.5-10c11.8-6.7,21-15.9,27.4-27.4c6.3-11.5,9.5-24.6,9.5-38.9
					C1118.6,655.2,1115.4,642.2,1109,630.8z M1064.7,687.5c-2.4,5.1-5.9,9.2-10.3,12.2c-4.4,2.9-9.7,4.4-15.9,4.4
					c-5.6,0-10.5-1.4-14.9-4.4c-4.5-3-8.1-7.1-10.7-12.2c-2.6-5.2-4-11.1-4-17.6c0-6.7,1.3-12.6,4-17.7c2.6-5,6.2-9.1,10.7-12.1
					c4.5-3,9.3-4.4,14.9-4.4c6.1,0,11.5,1.5,15.9,4.4c4.4,3,7.9,7,10.3,12c2.5,5.1,3.7,11.1,3.7,17.8
					C1068.5,676.3,1067.2,682.2,1064.7,687.5z"/>
				<rect x="1146.2" y="491.4" class="st2" width="49.8" height="250.7"/>
				<path class="st2" d="M1327,658.7c0,9.1-1.2,17.3-3.7,24.5c-2.4,7-5.8,12.5-10,16.5c-4.1,3.8-8.8,5.6-14.4,5.6
					c-5.4,0-9-1.3-11-4.1c-2.3-3.1-3.6-7.3-4-12.6v-88.2h-49.8v104.5l0,0.1c0.4,12.8,5.2,23.4,14.1,31.5
					c8.8,8.1,19.9,12.1,32.8,12.1c8.4,0,16.1-1.3,22.9-3.8c6.9-2.5,12.9-6.1,17.9-10.7c2.7-2.5,5.2-5.1,7.4-8l2.2,16h45.3V600.3
					H1327V658.7z"/>
				<polygon class="st2" points="1477.4,540.9 1427.6,540.9 1427.6,599.7 1406.5,599.7 1406.5,639.9 1427.6,639.9 1427.6,742.1 
					1477.4,742.1 1477.4,639.9 1510.2,639.9 1510.2,599.7 1477.4,599.7 				"/>
				<rect x="1536.9" y="600.3" class="st2" width="49.8" height="141.7"/>
				<path class="st2" d="M1581,537.3c-5.4-4.6-11.5-7-18-7c-6.5,0-12.7,2.3-18.3,6.9c-5.8,4.8-8.8,10.9-8.8,18.3
					c0,7.4,3,13.5,8.8,18.2c5.6,4.5,11.8,6.7,18.3,6.7c6.5,0,12.6-2.3,18-6.8c5.6-4.6,8.4-10.7,8.4-18.1
					C1589.4,548.2,1586.6,542.1,1581,537.3z"/>
				<path class="st2" d="M1764.4,630.8c-6.4-11.4-15.6-20.5-27.4-27.1c-11.8-6.5-25.9-9.8-41.8-9.8c-15.7,0-29.9,3.3-42.1,9.8
					c-12.2,6.5-21.9,15.6-28.6,27c-6.8,11.4-10.2,24.4-10.2,38.8c0,15.8,3.5,29.6,10.4,41c6.9,11.4,16.6,20.3,28.7,26.3
					c12,6,25.9,9,41.2,9c16.4,0,30.7-3.4,42.5-10c11.8-6.7,21-15.9,27.4-27.4c6.3-11.5,9.5-24.6,9.5-38.9
					C1773.9,655.2,1770.7,642.2,1764.4,630.8z M1720.1,687.5c-2.4,5.1-5.9,9.2-10.3,12.2c-4.4,2.9-9.7,4.4-15.9,4.4
					c-5.6,0-10.5-1.4-14.9-4.4c-4.5-3-8.1-7.1-10.7-12.2c-2.6-5.2-4-11.1-4-17.6c0-6.7,1.3-12.6,4-17.7c2.6-5,6.2-9.1,10.7-12.1
					c4.5-3,9.4-4.4,14.9-4.4c6.1,0,11.5,1.5,15.9,4.4c4.4,3,7.9,7,10.3,12c2.5,5.1,3.7,11.1,3.7,17.8
					C1723.8,676.3,1722.6,682.2,1720.1,687.5z"/>
				<path class="st2" d="M1933.1,605.9c-9.1-8-20.6-12.1-34.2-12.1c-13.1,0-24.4,2.8-33.6,8.4c-6.4,3.9-11.8,8.6-16.2,14.2l-2.3-16
					h-45.3v141.7h49.8v-58.3c0-9.3,1.3-17.6,3.8-24.6c2.5-6.9,6-12.4,10.5-16.3c4.4-3.8,9.4-5.7,15.2-5.7c6,0,10.2,1.4,12.5,4.2
					c2.5,3,3.9,7.2,4.1,12.4v88.3h49.8V637.5C1947.1,624.7,1942.3,614.1,1933.1,605.9z"/>
			</g>
			<g>
				<polygon class="st3" points="894.6,328.8 780.7,167.2 775.5,167.2 775.5,410.8 825.3,410.8 825.3,315.6 891.9,407.7 
					895.9,407.7 965.3,309 965.3,410.8 1016.6,410.8 1016.6,167.2 1011.1,167.2 				"/>
				<path class="st3" d="M1167.7,269.1l-2.1,10.4c-3.8-3.6-8.1-6.9-12.9-10c-7.4-4.8-18.3-7.2-32.2-7.2c-11.9,0-23.3,3.2-33.9,9.6
					c-10.5,6.4-19.2,15.5-25.6,27c-6.4,11.6-9.7,25.4-9.7,41.2c0,16.8,3.2,30.9,9.4,41.8c6.3,11,14.9,19.3,25.7,24.7
					c10.6,5.3,22.6,7.9,35.6,7.9c8.4,0,15.8-1.3,22.1-3.8c6.1-2.5,11.4-5.4,15.7-8.8c1.5-1.2,2.9-2.4,4.2-3.5v12.4h49.8V269.1
					H1167.7z M1164,354.8c-2,3.9-4.4,7.2-7.1,9.8c-2.8,2.7-6,4.7-9.7,6.1c-3.7,1.4-8,2.1-12.8,2.1c-5.8,0-11.2-1.5-16.1-4.5
					c-5-3-9-7.2-12-12.5c-3-5.3-4.5-11.3-4.5-17.9c0-6.6,1.4-12.6,4.2-17.6c2.8-5,6.6-9.1,11.4-12c4.7-2.9,9.9-4.3,15.5-4.3
					c5.1,0,9.8,0.8,14,2.4c4.1,1.6,7.7,3.9,10.7,6.7c2.8,2.7,5,6,6.5,9.9V354.8z"/>
				<path class="st3" d="M1364.2,269.1l-2.5,7.9c-4.3-3.6-9.8-6.7-16.4-9.4c-8.9-3.5-19.6-5.3-31.7-5.3c-12.3,0-24.1,3.4-35.1,10.1
					c-10.9,6.6-19.9,15.8-26.8,27.3c-6.9,11.5-10.4,24.8-10.4,39.6c0,14.3,3.3,27.3,9.7,38.6c6.4,11.3,15.2,20.3,26.1,26.8
					c10.9,6.6,22.8,9.9,35.6,9.9c14.6,0,26.6-2.8,35.7-8.4c4.5-2.7,8.3-5.7,11.5-9v9.8c0,6.1-1.5,11-4.7,15
					c-3.3,4.1-7.6,7.2-12.9,9.4c-5.5,2.2-11.5,3.3-17.8,3.3c-9.6,0-17.5-1.9-23.2-5.5c-6.1-3.9-11.5-8-16.1-12.2l-2.5-2.2
					l-29.7,34.7l2.5,2.1c4.5,3.7,9.8,7.7,15.6,11.9c6,4.3,13.4,8,22,10.9c8.7,3,19.4,4.5,31.9,4.5c15.3,0,29.4-3.1,42.1-9.1
					c12.7-6.1,23.1-14.6,30.8-25.2c7.8-10.7,11.8-23.2,11.8-37V269.1H1364.2z M1360,354.7c-2.2,3.9-4.9,7.1-8,9.7
					c-3.3,2.7-7.1,4.8-11.3,6.2c-4.3,1.4-9.3,2.2-14.9,2.2c-6.4,0-12.3-1.5-17.4-4.5c-5.2-3-9.3-7.2-12.3-12.4
					c-3-5.3-4.5-11.3-4.5-17.9c0-6.6,1.5-12.5,4.5-17.5c3-5.1,7.1-9.1,12.3-12c5.2-2.9,11-4.4,17.5-4.4c5.6,0,10.7,0.8,15.2,2.4
					c4.5,1.6,8.4,3.9,11.8,6.8c3.2,2.7,5.6,6,7.2,9.8V354.7z"/>
				<path class="st3" d="M1492.1,206.1L1492.1,206.1c-5.4-4.6-11.5-7-18-7c-6.5,0-12.7,2.3-18.3,6.9c-5.8,4.7-8.8,10.9-8.8,18.3
					c0,7.4,3,13.5,8.8,18.2c5.6,4.5,11.8,6.7,18.3,6.7c6.5,0,12.6-2.3,18-6.8c5.6-4.6,8.4-10.7,8.4-18.1
					C1500.5,217,1497.7,210.8,1492.1,206.1z"/>
				<rect x="1447.9" y="269.1" class="st3" width="49.8" height="141.7"/>
				<path class="st3" d="M1630.1,365.8c-2.6,2.2-5.7,3.9-9.3,5.1l0,0c-3.7,1.2-7.7,1.8-12.1,1.8c-6.8,0-12.8-1.5-17.7-4.4
					c-4.9-2.9-8.9-6.9-11.7-11.9c-2.8-5.1-4.2-10.7-4.2-16.7c0-6.4,1.3-12.2,3.9-17c2.6-4.8,6.2-8.7,10.6-11.5
					c4.5-2.8,9.3-4.2,14.7-4.2c6.3,0,11.8,1.1,16.4,3.3c4.8,2.3,8.6,4.5,11.3,6.6l2.6,2l24.9-32.9l-2.3-2
					c-6.7-5.6-14.7-10.1-24-13.6c-9.3-3.4-20.4-5.2-32.8-5.2c-12.6,0-24.8,2.9-36.3,8.7c-11.5,5.8-20.9,14.4-28,25.4
					c-7.1,11.1-10.7,24.7-10.7,40.3c0,15.6,3.3,29.1,9.9,40.2c6.6,11.1,16,19.8,28,25.7c11.9,5.9,25.9,8.8,41.8,8.8
					c9,0,18.2-1.5,27.5-4.5c9.3-3,17.2-7,23.5-12l2.5-2l-25.8-32.4L1630.1,365.8z"/>
			</g>
		</g>
		<g>
			<linearGradient id="SVGID_4_" gradientUnits="userSpaceOnUse" x1="726.0368" y1="205.0785" x2="485.0374" y2="488.6071">
				<stop  offset="0" style="stop-color:#E30613"/>
				<stop  offset="0.3257" style="stop-color:#E10613"/>
				<stop  offset="0.4911" style="stop-color:#D90512"/>
				<stop  offset="0.6204" style="stop-color:#CC0511"/>
				<stop  offset="0.731" style="stop-color:#B90410"/>
				<stop  offset="0.8296" style="stop-color:#A0020F"/>
				<stop  offset="0.9184" style="stop-color:#83010D"/>
				<stop  offset="0.9481" style="stop-color:#77000C"/>
			</linearGradient>
			<polyline class="st7" points="649.8,614.7 649.8,17.3 338.1,341.5 411.9,419.1 542.9,282.9 542.9,573 			"/>
			<g>
				<polygon class="st2" points="159.7,282.9 351.3,482.2 425.2,405.3 52.7,17.3 52.7,371.2 396.2,724.4 375.6,746.2 52.7,413.5 
					52.7,569.6 377.5,898.5 545,724 159.7,327.8 				"/>
				<polyline class="st2" points="552.4,259.3 552.4,259.3 542.9,259.3 542.9,573 492.8,627.7 567.5,704.5 649.8,614.7 649.8,40.9 
					640.3,40.9 640.3,40.9 				"/>
			</g>
		</g>
	</g>
</g>
</svg>
