<svg xmlns="http://www.w3.org/2000/svg" width="140" height="56.607" viewBox="0 0 140 56.607">
  <g id="Shape_1" transform="translate(-57.389 -120.998)">
    <g id="Group_22" data-name="Group 22" transform="translate(57.389 120.998)">
      <path id="Path_37" data-name="Path 37" d="M88.251,164.58a1.093,1.093,0,1,0,1.093,1.093A1.093,1.093,0,0,0,88.251,164.58Zm0,3.1a.463.463,0,1,0,.463.463A.463.463,0,0,0,88.251,167.681Zm3.294-.451,2.653,2.654a7.247,7.247,0,0,0,1.236-2.983H91.681Q91.621,167.069,91.545,167.23ZM89.478,169.1v3.753a7.251,7.251,0,0,0,2.983-1.236l-2.654-2.654C89.7,169.017,89.591,169.063,89.478,169.1Zm2.066-4.989q.076.161.137.33h3.753a7.249,7.249,0,0,0-1.236-2.983Zm-4.851-1.736c.107-.051.217-.1.329-.137v-3.753a7.25,7.25,0,0,0-2.983,1.236ZM84.04,171.62a7.249,7.249,0,0,0,2.983,1.236V169.1c-.113-.04-.223-.086-.33-.137Zm6.22-5.948a.463.463,0,1,0,.463-.463A.463.463,0,0,0,90.259,165.672Zm-4.018,0a.463.463,0,1,0-.463.463A.463.463,0,0,0,86.242,165.672Zm6.22-5.947a7.249,7.249,0,0,0-2.983-1.236v3.753c.113.04.223.086.33.137Zm-4.211,3.938a.463.463,0,1,0-.463-.463A.463.463,0,0,0,88.251,163.664Zm0-9.923a11.932,11.932,0,1,0,11.932,11.932A11.932,11.932,0,0,0,88.251,153.74Zm0,20.456a8.523,8.523,0,1,1,8.523-8.523A8.523,8.523,0,0,1,88.251,174.2Zm-3.431-7.3H81.067a7.247,7.247,0,0,0,1.236,2.983l2.654-2.654Q84.88,167.069,84.82,166.9Zm.137-2.786L82.3,161.461a7.247,7.247,0,0,0-1.236,2.983H84.82Q84.881,164.276,84.956,164.115Zm89.377.465a1.093,1.093,0,1,0,1.093,1.093A1.093,1.093,0,0,0,174.333,164.58Zm1.228,4.524v3.753a7.247,7.247,0,0,0,2.983-1.236l-2.653-2.654C175.784,169.017,175.674,169.063,175.561,169.1Zm2.983-9.378a7.246,7.246,0,0,0-2.983-1.236v3.753c.113.04.222.087.329.137Zm-.917,7.5,2.653,2.654a7.244,7.244,0,0,0,1.236-2.983h-3.753C177.724,167.013,177.678,167.123,177.627,167.23Zm19.544-8.919c-.423-1.138-1.952-.721-2.41-1.446,2.626-3.77-.387-10.776-.121-10.448-.99-1.543-3.228-2.372-4.989-3.147-2.462-1.084-5.134-2.275-7.81-3.182-1.471-.5-2.828-.663-4.339-1.157-1.733-.567-3.287-1.371-3.406-1.371l.128.117c-.116-.082-.153-.117-.128-.117-13.742-13.28-19.22-14.918-24.554-16.177-.131-.031-6.556-.386-6.556-.386s-56.994.018-73.276.018a9.192,9.192,0,0,0-2.7,1.332c-1.4.918-1.584,2.621-2.217,4.339-1.31,3.551-4.713,12.887-4.724,30.756,0,.436-1.3.06-1.543.482-3.736,6.442,2.661,9.448,5.785,9.449,1.784,0,11.184,1.446,11.184,1.446h.552a12.534,12.534,0,1,1,24.349,0H162.27a12.438,12.438,0,1,1,24.1,0h3.664a8.227,8.227,0,0,0,2.025-1.35c.365-.51.29-1.039.868-1.35,2.592-1.4,4.432-1.393,4.435-5.5A5.3,5.3,0,0,0,197.171,158.311ZM159.807,135.23c-.4.614-1.235.382-1.254,4.724l-18.608-.193s-.037-14.69-.093-14.945h0c0-.006,0-.005,0,0a33.512,33.512,0,0,1,11.277.193c9.166,2.66,12.543,8.307,14.525,10.723C164.707,135.718,160.5,135.067,159.807,135.23Zm12.969,27.149c.107-.051.217-.1.33-.137v-3.753a7.246,7.246,0,0,0-2.983,1.236Zm4.852,1.736q.076.161.137.33h3.753a7.245,7.245,0,0,0-1.236-2.983Zm-3.294-10.375a11.932,11.932,0,1,0,11.932,11.932A11.932,11.932,0,0,0,174.333,153.74Zm0,20.456a8.523,8.523,0,1,1,8.523-8.523A8.523,8.523,0,0,1,174.333,174.2Zm0-6.514a.463.463,0,1,0,.463.463A.463.463,0,0,0,174.333,167.681Zm-2.009-2.009a.463.463,0,1,0-.463.463A.463.463,0,0,0,172.324,165.672Zm-1.285-1.557-2.653-2.654a7.247,7.247,0,0,0-1.236,2.983H170.9C170.943,164.332,170.989,164.222,171.039,164.115Zm5.3,1.557a.463.463,0,1,0,.463-.463A.463.463,0,0,0,176.342,165.672Zm-2.009-2.009a.463.463,0,1,0-.463-.463A.464.464,0,0,0,174.333,163.664Zm-4.211,7.956a7.249,7.249,0,0,0,2.983,1.236V169.1c-.113-.04-.222-.087-.329-.137Zm.78-4.719h-3.753a7.248,7.248,0,0,0,1.236,2.983l2.654-2.654Q170.963,167.07,170.9,166.9Z" transform="translate(-57.389 -120.998)" fill="#fcfcfc"/>
    </g>
  </g>
</svg>
