<svg xmlns="http://www.w3.org/2000/svg" width="29.481" height="22" viewBox="0 0 29.481 22">
  <path id="bxs-quote-alt-left" d="M9.612,14.819a6.506,6.506,0,0,0-.955.1,5.3,5.3,0,0,1,.373-1,6.182,6.182,0,0,1,.69-1.24,7.315,7.315,0,0,1,.883-1.083,9.827,9.827,0,0,1,1.017-.888,6.269,6.269,0,0,1,1.049-.681,5.544,5.544,0,0,1,.955-.514l.792-.326.7-.289L14.4,6.046l-.877.212c-.28.071-.623.153-1.012.252a7.91,7.91,0,0,0-1.3.459A9.127,9.127,0,0,0,9.7,7.653,13.8,13.8,0,0,0,8.1,8.67a11.46,11.46,0,0,0-1.543,1.388A10.331,10.331,0,0,0,5.22,11.766a11.914,11.914,0,0,0-1.032,1.909A16.166,16.166,0,0,0,3.5,15.638a17.741,17.741,0,0,0-.564,3.581,18.317,18.317,0,0,0,.041,2.568c.022.3.064.591.093.792l.037.247.038-.009a6.613,6.613,0,1,0,6.465-8Zm16.166,0a6.506,6.506,0,0,0-.955.1,5.3,5.3,0,0,1,.373-1,6.182,6.182,0,0,1,.69-1.24,7.315,7.315,0,0,1,.883-1.083,9.828,9.828,0,0,1,1.017-.888,6.269,6.269,0,0,1,1.049-.681,5.544,5.544,0,0,1,.955-.514l.792-.326.7-.289-.713-2.848-.877.212c-.28.071-.623.153-1.012.252a7.91,7.91,0,0,0-1.3.459,9.1,9.1,0,0,0-1.511.687,13.8,13.8,0,0,0-1.6,1.017,11.518,11.518,0,0,0-1.543,1.387,10.331,10.331,0,0,0-1.336,1.708,11.914,11.914,0,0,0-1.032,1.909,16.166,16.166,0,0,0-.688,1.963A17.741,17.741,0,0,0,19.1,19.22a18.317,18.317,0,0,0,.041,2.568c.022.3.064.591.093.792l.037.247.038-.009a6.613,6.613,0,1,0,6.465-8Z" transform="translate(-2.911 -6.046)" fill="#45e01f"/>
</svg>
