<svg xmlns="http://www.w3.org/2000/svg" width="21" height="20.028" viewBox="0 0 21 20.028">
  <path id="star" d="M21,7.761a.911.911,0,0,1-.328.605L16.09,12.834l1.086,6.31a1.875,1.875,0,0,1,.013.253.744.744,0,0,1-.132.448.446.446,0,0,1-.386.183,1.019,1.019,0,0,1-.5-.152L10.5,16.9,4.833,19.876a1.071,1.071,0,0,1-.5.152.458.458,0,0,1-.4-.183A.747.747,0,0,1,3.8,19.4a2.063,2.063,0,0,1,.025-.253l1.086-6.31L.316,8.367A.961.961,0,0,1,0,7.761q0-.467.707-.58L7.042,6.26,9.881.517Q10.121,0,10.5,0t.618.517l2.84,5.742,6.335.921q.707.114.707.58Z" fill="#45e01f"/>
</svg>
