<svg id="google" xmlns="http://www.w3.org/2000/svg" width="24" height="24.49" viewBox="0 0 24 24.49">
  <path id="Path_32" data-name="Path 32" d="M142.305,109.264a10.493,10.493,0,0,0-.258-2.5h-11.5v4.544H137.3a5.984,5.984,0,0,1-2.5,3.973l-.023.152,3.635,2.816.252.025a11.972,11.972,0,0,0,3.646-9.007" transform="translate(-118.305 -96.747)" fill="#4285f4"/>
  <path id="Path_33" data-name="Path 33" d="M24.864,166.193a11.671,11.671,0,0,0,8.109-2.966l-3.864-2.993a7.247,7.247,0,0,1-4.245,1.224A7.372,7.372,0,0,1,17.9,156.37l-.144.012-3.78,2.925-.049.137a12.236,12.236,0,0,0,10.939,6.748" transform="translate(-12.619 -141.703)" fill="#34a853"/>
  <path id="Path_34" data-name="Path 34" d="M5.279,79.29a7.538,7.538,0,0,1-.408-2.422,7.921,7.921,0,0,1,.395-2.422l-.007-.162L1.431,71.312l-.125.06a12.219,12.219,0,0,0,0,10.993L5.279,79.29" transform="translate(0 -64.623)" fill="#fbbc05"/>
  <path id="Path_35" data-name="Path 35" d="M24.864,4.735A6.786,6.786,0,0,1,29.6,6.558l3.456-3.374A11.765,11.765,0,0,0,24.864,0,12.236,12.236,0,0,0,13.925,6.748l3.959,3.075a7.4,7.4,0,0,1,6.98-5.088" transform="translate(-12.619)" fill="#eb4335"/>
</svg>
