<svg xmlns="http://www.w3.org/2000/svg" width="140" height="46.9" viewBox="0 0 140 46.9">
  <g id="Shape_1" transform="translate(-57.402 -151.49)">
    <g id="Group_24" data-name="Group 24" transform="translate(57.402 151.49)">
      <path id="Path_39" data-name="Path 39" d="M88.052,189.5a.415.415,0,1,0,.415.415A.415.415,0,0,0,88.052,189.5Zm0-2.78a.98.98,0,1,0,.98.98A.98.98,0,0,0,88.052,186.716Zm-1.4-1.973q.144-.068.3-.123v-3.364a6.5,6.5,0,0,0-2.674,1.108Zm1.4-7.743A10.695,10.695,0,1,0,98.747,187.7,10.695,10.695,0,0,0,88.052,177Zm0,18.334a7.639,7.639,0,1,1,7.639-7.639A7.639,7.639,0,0,1,88.052,195.334Zm1.1-4.564v3.363a6.5,6.5,0,0,0,2.674-1.108l-2.378-2.378A3.192,3.192,0,0,1,89.152,190.77Zm1.975-4.176h3.364a6.5,6.5,0,0,0-1.108-2.674L91,186.3Q91.073,186.443,91.127,186.595Zm-.123,2.5,2.378,2.378a6.494,6.494,0,0,0,1.108-2.674H91.127C91.091,188.9,91.05,189,91,189.091Zm-6.726,3.934a6.5,6.5,0,0,0,2.674,1.108V190.77c-.1-.036-.2-.078-.3-.123Zm5.575-5.33a.415.415,0,1,0,.415-.415A.415.415,0,0,0,89.853,187.7Zm1.973-5.33a6.5,6.5,0,0,0-2.674-1.108v3.364c.1.036.2.078.3.123Zm-3.774,3.53a.415.415,0,1,0-.415-.415A.415.415,0,0,0,88.052,185.895Zm-3.075,2.9H81.613a6.494,6.494,0,0,0,1.108,2.674l2.378-2.378Q85.031,188.947,84.977,188.8Zm.123-2.5-2.378-2.378a6.494,6.494,0,0,0-1.108,2.674h3.364C85.013,186.494,85.054,186.4,85.1,186.3Zm1.152,1.4a.415.415,0,1,0-.415.415A.415.415,0,0,0,86.251,187.7Zm86.352-.98a.98.98,0,1,0,.98.98A.98.98,0,0,0,172.6,186.716Zm0,2.78a.415.415,0,1,0,.415.415A.415.415,0,0,0,172.6,189.5Zm3.075-2.9h3.364a6.5,6.5,0,0,0-1.108-2.674l-2.378,2.378Q175.624,186.443,175.678,186.595ZM172.6,177A10.695,10.695,0,1,0,183.3,187.7,10.695,10.695,0,0,0,172.6,177Zm0,18.334a7.639,7.639,0,1,1,7.639-7.639A7.639,7.639,0,0,1,172.6,195.334Zm2.952-6.243,2.378,2.378a6.5,6.5,0,0,0,1.108-2.674h-3.364A3.165,3.165,0,0,1,175.555,189.091Zm20.962-7.321c-.2-.292-.768-.422-.936-.7a14.2,14.2,0,0,1-.39-1.56,10.639,10.639,0,0,0-5.148-5.928c-2.924-1.79-6.047-2.53-9.517-3.822.167.062-5.233-1.409-6.552-1.638-.811-.266-3.739-1.112-4.446-.858-.778-.8-2.149-1.2-3.12-1.794-1.567-.962-3.183-2-4.758-2.964-.842-.516-1.728-.81-2.574-1.326-2.19-1.335-7.021-3.51-7.021-3.51s-17.812-10.034-80.581-4.524a5.511,5.511,0,0,0-2.262.39l-.234.078c.014.6.295,2.5,0,2.964-.089.693-1.428,1.762-1.872,2.262-1.034,1.166-2.121,2.421-3.042,3.666a7.917,7.917,0,0,1-1.4,1.794c-.181.181-1.208,1.688-1.638,2.34a14.481,14.481,0,0,0-1.4,2.886c-.4,1.486.154,3.364.39,4.524.018.088-.037,2.473,0,3.51a28.12,28.12,0,0,1-1.248,2.886c-.419,1.017-.5,1.823-1.326,2.418-.107,2.137.046,4.128,1.014,5.382.581.752,2.809,4.212,2.809,4.212H77.643a11.443,11.443,0,1,1,20.816,0h63.735a11.444,11.444,0,1,1,20.816,0h8.358s6.778-.387,4.291-2.262a9.289,9.289,0,0,1,.78-2.184,1.433,1.433,0,0,1,.624-.156C197.8,186.26,197.2,182.776,196.518,181.77ZM70.771,165.155s.85-.8,1.248-1.092c1.136-.846,2.18-1.808,3.354-2.652,1.855-1.334,4.079-3.295,6.241-4.212,1.4-.593,3-.469,4.68-.858,1.326-.307,2.98-.237,4.368-.546-.153,0,3.51-.156,3.354-.156s2.311-.243,3.354-.234c0,3.9.468,6.865.468,10.765C79.854,165.36,70.771,165.155,70.771,165.155Zm32.139.858-.7-10.843s5.858-.487,11.545-.506c5.817-.02,11.467.428,11.467.428l1.17,12.169Zm29.876,1.716s-1.794-12.406-1.794-12.483,10.583,1.38,14.977,3.2a36.378,36.378,0,0,1,4.836,2.184c.744.455,2.574,1.4,2.574,1.4l.468,7.411Zm38.421,17.014a3.191,3.191,0,0,1,.3-.123v-3.364a6.5,6.5,0,0,0-2.674,1.108Zm2.5,6.027v3.363a6.5,6.5,0,0,0,2.674-1.108L174,190.647C173.9,190.693,173.8,190.734,173.7,190.77Zm.7-3.075a.415.415,0,1,0,.415-.415A.415.415,0,0,0,174.4,187.7Zm-3.6,0a.415.415,0,1,0-.415.415A.415.415,0,0,0,170.8,187.7Zm1.8-1.8a.415.415,0,1,0-.415-.415A.415.415,0,0,0,172.6,185.895Zm3.774-3.53a6.5,6.5,0,0,0-2.674-1.108v3.364c.1.036.2.078.3.123Zm-7.548,10.661a6.5,6.5,0,0,0,2.674,1.108V190.77c-.1-.036-.2-.078-.3-.123Zm.7-4.23h-3.364a6.5,6.5,0,0,0,1.108,2.674l2.378-2.378Q169.583,188.947,169.528,188.8Zm.123-2.5-2.378-2.378a6.5,6.5,0,0,0-1.108,2.674h3.364C169.564,186.494,169.606,186.4,169.651,186.3Z" transform="translate(-57.402 -151.49)" fill="#fcfcfc"/>
    </g>
  </g>
</svg>
