<svg xmlns="http://www.w3.org/2000/svg" width="19" height="19" viewBox="0 0 19 19">
  <path id="phone" d="M19,15.006a4.454,4.454,0,0,1-.135.952,5.355,5.355,0,0,1-.283.924,3.619,3.619,0,0,1-1.646,1.43,5.232,5.232,0,0,1-2.51.688,5.386,5.386,0,0,1-.715-.047,5.471,5.471,0,0,1-.776-.169q-.425-.122-.634-.2t-.749-.277q-.539-.2-.661-.243a12.217,12.217,0,0,1-2.361-1.12,20.344,20.344,0,0,1-3.563-2.915,20.344,20.344,0,0,1-2.915-3.562A12.237,12.237,0,0,1,.931,8.11Q.89,7.989.688,7.449T.412,6.7q-.074-.209-.2-.634A5.593,5.593,0,0,1,.047,5.29,5.262,5.262,0,0,1,0,4.575a5.234,5.234,0,0,1,.688-2.51A3.619,3.619,0,0,1,2.118.419,5.375,5.375,0,0,1,3.043.135,4.448,4.448,0,0,1,3.994,0a.753.753,0,0,1,.283.041q.243.081.715,1.025.148.257.4.729t.472.857q.216.385.419.722.041.054.236.337a3.842,3.842,0,0,1,.29.479.871.871,0,0,1,.094.385,1.12,1.12,0,0,1-.385.674,6.592,6.592,0,0,1-.837.742,8.143,8.143,0,0,0-.837.715,1.028,1.028,0,0,0-.385.621.91.91,0,0,0,.068.3q.068.182.115.277t.189.324q.142.23.155.257A14.162,14.162,0,0,0,7.341,11.66a14.162,14.162,0,0,0,3.171,2.348q.027.014.257.155t.324.189a2.833,2.833,0,0,0,.277.115.928.928,0,0,0,.3.068,1.028,1.028,0,0,0,.621-.385,8.143,8.143,0,0,0,.715-.837,6.592,6.592,0,0,1,.742-.837,1.12,1.12,0,0,1,.675-.385.881.881,0,0,1,.385.094,3.758,3.758,0,0,1,.479.29q.283.2.337.236.337.2.722.419t.857.472q.472.257.729.4.945.472,1.025.715a.753.753,0,0,1,.041.283Z" fill="#45e01f"/>
</svg>
