<svg xmlns="http://www.w3.org/2000/svg" width="140" height="46.984" viewBox="0 0 140 46.984">
  <g id="Shape_1" transform="translate(-57.411 -151.479)">
    <g id="Group_21" data-name="Group 21" transform="translate(57.411 151.479)">
      <path id="Path_36" data-name="Path 36" d="M88.2,185.988a1.047,1.047,0,1,0,1.047,1.047A1.047,1.047,0,0,0,88.2,185.988Zm0,2.971a.444.444,0,1,0,.444.444A.444.444,0,0,0,88.2,188.959Zm1.176,1.362v3.594a6.941,6.941,0,0,0,2.857-1.184L89.7,190.19C89.594,190.238,89.489,190.283,89.381,190.321Zm1.979-1.794,2.541,2.541a6.941,6.941,0,0,0,1.184-2.857H91.491Q91.433,188.373,91.36,188.527Zm0-2.984q.073.154.131.316h3.594A6.943,6.943,0,0,0,93.9,183Zm-4.646-1.663c.1-.049.208-.093.316-.132v-3.594a6.941,6.941,0,0,0-2.857,1.184Zm1.491-8.274a11.428,11.428,0,1,0,11.428,11.428A11.428,11.428,0,0,0,88.2,175.607Zm0,19.591a8.163,8.163,0,1,1,8.163-8.163A8.163,8.163,0,0,1,88.2,195.2Zm0-10.087a.444.444,0,1,0-.444-.444A.444.444,0,0,0,88.2,185.111Zm4.033-3.772a6.941,6.941,0,0,0-2.857-1.184v3.594q.162.058.316.131Zm-7.188,4.2L82.509,183a6.94,6.94,0,0,0-1.184,2.857h3.595A3.412,3.412,0,0,1,85.05,185.543Zm-.878,7.188a6.942,6.942,0,0,0,2.857,1.184v-3.594a3.418,3.418,0,0,1-.316-.131Zm.747-4.52H81.325a6.943,6.943,0,0,0,1.184,2.857l2.541-2.542C85,188.424,84.958,188.319,84.919,188.211Zm1.362-1.176a.444.444,0,1,0-.444.444A.444.444,0,0,0,86.281,187.035Zm3.848,0a.444.444,0,1,0,.444-.444A.444.444,0,0,0,90.129,187.035Zm86.646-1.047a1.047,1.047,0,1,0,1.047,1.047A1.047,1.047,0,0,0,176.775,185.988Zm-1.491-2.108c.1-.049.208-.093.316-.132v-3.594a6.942,6.942,0,0,0-2.857,1.184Zm1.491,5.078a.444.444,0,1,0,.444.444A.444.444,0,0,0,176.775,188.959Zm1.176,1.362v3.594a6.942,6.942,0,0,0,2.857-1.184l-2.542-2.542C178.164,190.238,178.059,190.283,177.951,190.321Zm2.11-2.11q-.058.162-.131.316l2.541,2.541a6.941,6.941,0,0,0,1.184-2.857Zm16.6-14.468c-1.551-2.375-5.523-3.2-8.548-4.19-21.126-5.1-28.152-3.442-31.678-3.939a7.939,7.939,0,0,1-1.927-1.173c-1.275-.794-2.6-1.493-3.855-2.263-2.076-1.272-11.656-6.512-14.247-7.458-5.692-2.08-14.689-3.748-36.371-2.011-.88-.242-1.411-.952-2.346-1.173a5,5,0,0,0-2.43.419,8.08,8.08,0,0,1-.168,1.844c-4.237,1.787-8.525,3.158-12.738,4.944-1.758.746-3.572,1.475-5.363,2.263a35.2,35.2,0,0,1-3.436,1.592c-1.365.441-2.857.242-4.358.587a42.066,42.066,0,0,1-8.716.754,6.618,6.618,0,0,0-1.089,1.928c.523.161.7.522.67,1.257-.924,1.369-.676,3.32-.67,5.531-1.969,1.008-2.268,4.7-1.76,7.626l-.168.754c.105.827.374,1.7.419,2.6a9,9,0,0,1,2.1,2.011c.252.351.375.955.838,1.089,2.474,1.806,15,2.179,15,2.179l.659.036a11.886,11.886,0,1,1,23.617-1.912,17.847,17.847,0,0,1-.432,3.906l65.848-.116a11.886,11.886,0,1,1,22.685-.474l.673-.014s5.188-.251,6.453-.838a3.987,3.987,0,0,0,1.76-2.263l-.335-3.52S198.3,176.257,196.658,173.743ZM91.485,165.112c-3.939-2.617-1.852-5.672-1.958-5.663-.063.056-.108.1-.137.131a.7.7,0,0,1,.137-.131c1.015-.9,6.806-4.949,27.351-4.981.643,3.6,1.285,8.337,1.927,11.94C110.539,166.158,94.268,166.3,91.485,165.112Zm52.964,1.34-19.778,0s-2.9-7.649-3.939-11.894c.121.011,3.687.167,3.687.167a72.349,72.349,0,0,1,11.481,2.263c3.478,1.148,10.344,5.761,10.475,6.034C144.311,163.122,143.822,164.749,144.449,166.452Zm32.326,9.155A11.428,11.428,0,1,0,188.2,187.035,11.428,11.428,0,0,0,176.775,175.607Zm0,19.591a8.163,8.163,0,1,1,8.163-8.163A8.163,8.163,0,0,1,176.775,195.2Zm-3.155-9.655L171.079,183a6.942,6.942,0,0,0-1.184,2.857h3.595A3.418,3.418,0,0,1,173.621,185.543Zm1.231,1.492a.444.444,0,1,0-.444.444A.444.444,0,0,0,174.851,187.035Zm1.924-1.924a.444.444,0,1,0-.444-.444A.444.444,0,0,0,176.775,185.111Zm4.033-3.772a6.941,6.941,0,0,0-2.857-1.184v3.594q.162.058.316.131Zm-2.109,5.7a.444.444,0,1,0,.444-.444A.444.444,0,0,0,178.7,187.035Zm-5.957,5.7a6.942,6.942,0,0,0,2.857,1.184v-3.594a3.4,3.4,0,0,1-.316-.131Zm.747-4.52H169.9a6.943,6.943,0,0,0,1.184,2.857l2.542-2.542A3.408,3.408,0,0,1,173.489,188.211Zm6.572-2.352h3.594A6.942,6.942,0,0,0,182.472,183l-2.542,2.541C179.979,185.646,180.023,185.751,180.061,185.859Z" transform="translate(-57.411 -151.479)" fill="#fcfcfc"/>
    </g>
  </g>
</svg>
