<svg xmlns="http://www.w3.org/2000/svg" width="235.281" height="78.82" viewBox="0 0 235.281 78.82">
  <g id="Shape_1" transform="translate(-57.402 -151.49)">
    <g id="Group_24" data-name="Group 24" transform="translate(57.402 151.49)">
      <path id="Path_39" data-name="Path 39" d="M108.912,215.362a.7.7,0,1,0,.7.7A.7.7,0,0,0,108.912,215.362Zm0-4.672a1.646,1.646,0,1,0,1.647,1.646A1.646,1.646,0,0,0,108.912,210.69Zm-2.346-3.315q.242-.115.5-.206v-5.653a10.92,10.92,0,0,0-4.493,1.862Zm2.346-13.012a17.973,17.973,0,1,0,17.973,17.973A17.973,17.973,0,0,0,108.912,194.363Zm0,30.812a12.838,12.838,0,1,1,12.838-12.838A12.838,12.838,0,0,1,108.912,225.174Zm1.849-7.67v5.653a10.917,10.917,0,0,0,4.494-1.862l-4-4A5.37,5.37,0,0,1,110.761,217.5Zm3.318-7.017h5.653a10.919,10.919,0,0,0-1.862-4.494l-4,4Q113.988,210.232,114.079,210.487Zm-.206,4.2,4,4a10.913,10.913,0,0,0,1.862-4.494h-5.653C114.019,214.355,113.949,214.521,113.873,214.682Zm-11.3,6.612a10.916,10.916,0,0,0,4.493,1.863V217.5c-.17-.061-.335-.13-.5-.207Zm9.369-8.958a.7.7,0,1,0,.7-.7A.7.7,0,0,0,111.938,212.336Zm3.317-8.958a10.919,10.919,0,0,0-4.493-1.863v5.653c.17.061.335.13.5.207Zm-6.343,5.932a.7.7,0,1,0-.7-.7A.7.7,0,0,0,108.912,209.31Zm-5.167,4.875H98.091a10.913,10.913,0,0,0,1.862,4.494l4-4Q103.835,214.44,103.744,214.185Zm.206-4.2-4-4a10.913,10.913,0,0,0-1.862,4.494h5.653C103.8,210.317,103.874,210.152,103.95,209.99Zm1.935,2.346a.7.7,0,1,0-.7.7A.7.7,0,0,0,105.886,212.336Zm145.121-1.646a1.646,1.646,0,1,0,1.646,1.646A1.646,1.646,0,0,0,251.007,210.69Zm0,4.672a.7.7,0,1,0,.7.7A.7.7,0,0,0,251.007,215.362Zm5.168-4.875h5.653a10.92,10.92,0,0,0-1.862-4.494l-4,4Q256.083,210.232,256.174,210.487Zm-5.168-16.124a17.973,17.973,0,1,0,17.973,17.973A17.973,17.973,0,0,0,251.007,194.363Zm0,30.812a12.838,12.838,0,1,1,12.838-12.838A12.838,12.838,0,0,1,251.007,225.174Zm4.961-10.492,4,4a10.918,10.918,0,0,0,1.862-4.494h-5.653A5.321,5.321,0,0,1,255.968,214.682Zm35.229-12.3c-.333-.491-1.292-.709-1.573-1.18a23.866,23.866,0,0,1-.656-2.622c-2.452-5.988-5.152-7.821-8.652-9.963-4.915-3.008-10.162-4.252-15.994-6.424.281.1-8.795-2.367-11.012-2.753-1.363-.447-6.284-1.869-7.473-1.442-1.307-1.35-3.612-2.013-5.244-3.015-2.634-1.617-5.349-3.359-8-4.982-1.415-.868-2.9-1.362-4.326-2.229-3.68-2.244-11.8-5.9-11.8-5.9s-29.935-16.862-135.422-7.6c-1.274.124-2.842.037-3.8.656l-.393.131c.023,1.015.5,4.208,0,4.982-.15,1.165-2.4,2.962-3.146,3.8C71.969,165.8,70.144,167.906,68.6,170a13.306,13.306,0,0,1-2.36,3.015c-.3.3-2.03,2.838-2.753,3.933a24.336,24.336,0,0,0-2.36,4.85c-.669,2.5.258,5.653.656,7.6.03.149-.062,4.156,0,5.9a47.256,47.256,0,0,1-2.1,4.851c-.7,1.709-.849,3.063-2.229,4.064-.18,3.592.077,6.938,1.7,9.046.976,1.264,4.721,7.079,4.721,7.079H91.419a19.231,19.231,0,1,1,34.983,0H233.514a19.232,19.232,0,1,1,34.983,0h14.047s11.391-.651,7.211-3.8c.449-1.056.523-2.635,1.311-3.671a2.408,2.408,0,0,1,1.049-.262C293.357,209.925,292.343,204.069,291.2,202.379ZM79.869,174.456s1.429-1.337,2.1-1.835c1.909-1.422,3.664-3.038,5.637-4.457,3.117-2.242,6.854-5.537,10.488-7.079,2.349-1,5.046-.789,7.866-1.442,2.229-.516,5.009-.4,7.341-.918-.257,0,5.9-.262,5.637-.262s3.884-.408,5.637-.393c0,6.554.787,11.537.787,18.091C95.134,174.8,79.869,174.456,79.869,174.456Zm54.012,1.442-1.18-18.223s9.844-.819,19.4-.851c9.777-.033,19.271.72,19.271.72L173.341,178Zm50.21,2.884s-3.015-20.849-3.015-20.979,17.786,2.318,25.171,5.378a61.133,61.133,0,0,1,8.128,3.671c1.25.764,4.326,2.36,4.326,2.36l.786,12.454Zm64.57,28.593a5.368,5.368,0,0,1,.5-.206v-5.653a10.921,10.921,0,0,0-4.494,1.862Zm4.2,10.13v5.653a10.919,10.919,0,0,0,4.494-1.862l-4-4C253.191,217.374,253.026,217.444,252.856,217.5Zm1.177-5.168a.7.7,0,1,0,.7-.7A.7.7,0,0,0,254.033,212.336Zm-6.052,0a.7.7,0,1,0-.7.7A.7.7,0,0,0,247.981,212.336Zm3.026-3.026a.7.7,0,1,0-.7-.7A.7.7,0,0,0,251.007,209.31Zm6.343-5.932a10.921,10.921,0,0,0-4.493-1.863v5.653c.17.061.335.13.5.207Zm-12.685,17.916a10.916,10.916,0,0,0,4.493,1.863V217.5c-.17-.061-.335-.13-.5-.207Zm1.175-7.109h-5.653a10.92,10.92,0,0,0,1.862,4.494l4-4Q245.93,214.44,245.839,214.185Zm.206-4.2-4-4a10.917,10.917,0,0,0-1.862,4.494h5.653C245.9,210.317,245.969,210.152,246.045,209.99Z" transform="translate(-57.402 -151.49)" fill="#fcfcfc"/>
    </g>
  </g>
</svg>
