<svg xmlns="http://www.w3.org/2000/svg" width="33.628" height="32.117" viewBox="0 0 33.628 32.117">
  <path id="star" d="M32.627,12.058a1.416,1.416,0,0,1-.51.941L25,19.941l1.687,9.8a2.914,2.914,0,0,1,.02.392,1.156,1.156,0,0,1-.206.7.693.693,0,0,1-.6.285,1.583,1.583,0,0,1-.784-.236l-8.8-4.628-8.8,4.628a1.664,1.664,0,0,1-.784.236.712.712,0,0,1-.617-.285,1.161,1.161,0,0,1-.207-.7,3.205,3.205,0,0,1,.039-.392l1.687-9.8L.49,13A1.494,1.494,0,0,1,0,12.058q0-.725,1.1-.9l9.843-1.431L15.353.8q.372-.8.961-.8t.961.8l4.412,8.922,9.843,1.431q1.1.177,1.1.9Z" transform="translate(0.5 0.5)" fill="none" stroke="#45e01f" stroke-width="1"/>
</svg>
