<svg xmlns="http://www.w3.org/2000/svg" width="140" height="54.38" viewBox="0 0 140 54.38">
  <g id="Shape_1" transform="translate(-57.436 -127.998)">
    <g id="Group_23" data-name="Group 23" transform="translate(57.436 127.998)">
      <path id="Path_38" data-name="Path 38" d="M87.243,167.988a1.208,1.208,0,1,0,1.212,1.208A1.21,1.21,0,0,0,87.243,167.988Zm0,3.427a.512.512,0,1,0,.514.512A.513.513,0,0,0,87.243,171.415Zm1.361,1.571v4.146a8.054,8.054,0,0,0,3.307-1.366l-2.942-2.932C88.851,172.89,88.729,172.941,88.6,172.986Zm2.442-2.434c-.045.124-.1.246-.151.365l2.942,2.931a8,8,0,0,0,1.371-3.3Zm-5.53-5c.119-.056.241-.107.365-.152v-4.146a8.051,8.051,0,0,0-3.307,1.366Zm1.727-9.544A13.183,13.183,0,1,0,100.472,169.2,13.206,13.206,0,0,0,87.243,156.013Zm0,22.6a9.416,9.416,0,1,1,9.449-9.416A9.433,9.433,0,0,1,87.243,178.612Zm-4.669-2.846a8.054,8.054,0,0,0,3.307,1.366v-4.146c-.125-.045-.247-.1-.366-.152Zm2.441-6.571a.514.514,0,1,0-.514.512A.513.513,0,0,0,85.016,169.2Zm6.031-1.356h4.161a7.992,7.992,0,0,0-1.371-3.3l-2.942,2.932C90.951,167.593,91,167.715,91.047,167.839Zm-3.8-.863a.512.512,0,1,0-.514-.512A.513.513,0,0,0,87.243,166.976ZM89.47,169.2a.514.514,0,1,0,.514-.512A.513.513,0,0,0,89.47,169.2Zm-5.879-1.721-2.942-2.931a8,8,0,0,0-1.371,3.3H83.44A3.938,3.938,0,0,1,83.591,167.475Zm92.121-.258h4.161a7.993,7.993,0,0,0-1.371-3.3l-2.942,2.932C175.616,166.971,175.667,167.092,175.712,167.217Zm-92.273,3.335H79.279a7.993,7.993,0,0,0,1.371,3.3l2.942-2.932C83.535,170.8,83.484,170.676,83.439,170.552Zm8.472-7.927a8.054,8.054,0,0,0-3.307-1.366V165.4c.125.044.247.1.366.151Zm81.358,9.738v4.146a8.053,8.053,0,0,0,3.307-1.366l-2.942-2.932C173.516,172.268,173.395,172.319,173.27,172.363Zm2.291-2.069,2.942,2.931a7.993,7.993,0,0,0,1.371-3.3h-4.161Q175.645,170.116,175.561,170.294Zm-3.652-2.929a1.208,1.208,0,1,0,1.212,1.208A1.21,1.21,0,0,0,171.908,167.365Zm0,3.427a.512.512,0,1,0,.514.512A.513.513,0,0,0,171.908,170.792ZM59.562,157.03h-.009C59.556,157.053,59.56,157.051,59.562,157.03Zm137.867,3.346c.234-8.363-5.355-11.751-5.083-11.549-1.4-1.046-3.275-1.425-5.217-1.962,3.362.929-4.766-.837-22.741-2.809l-1.026-.044c-4-1.218-4.146-1.45-5.44-2.364-1.25-.882-2.5-1.757-3.746-2.631-2.6-1.828-5.326-3.513-8.027-5.217-1.006-.635-2.052-1.116-3.077-1.739a29.579,29.579,0,0,0-3.166-1.516c-.1-.075-.109-.246-.178-.357-.38-.6-.919-1.749-1.917-1.561v.357a1.926,1.926,0,0,1,.089.847c-1.305-.128-3.924-.49-3.924-.49s-4.435-.607-9.94-.8c-9-.313-20.872-.544-20.872-.544s-11.419.291-19.955.644c-5.095.211-9.163.56-9.163.56s-6.325,1.081-6.064.985c-2.658.982-.79,1.2-.713,1.65-1.464,1.578-4.085,2.722-7.447,12.664-.28.828-.2,1.852-.4,2.72,0,3.569.177,9.454.143,9.809.589-.13-3.59,2.307-1.57,9.276.2.7,1.173,2.809,1.607,2.238-1.937,2.551,5.366,3.893,14.326,4.594a13.891,13.891,0,1,1,26.395.734l.3,0,58.481.074a13.891,13.891,0,1,1,25.6.032h.732s6.214.4,7.09-1.917c.278-.171.8-.073,1.115-.178.991-.327,2.535-2.353,1.962-2.007C196.722,169.195,197.334,163.761,197.429,160.375ZM95.27,133.455l-7.358,10.382s2.554.045-22.631-.023a23.173,23.173,0,0,1,7.334-11.134l21.629-1.267s1.263-.006,1.427.434C96.025,132.279,95.27,133.455,95.27,133.455Zm6.51,10.8s-2.565-.753-2.988-2.076a3.379,3.379,0,0,1,.082-1.8.152.152,0,0,1,.007-.025c0,.008,0,.017-.007.025.02-.028,2.157-6.5,3.842-7.962,2.166-1.218,16.053-.267,16.053-.267l.006,12.086Zm44.636-5.509v.045h-.044c-1.827,2.373-.089,6.064-.089,6.064l-21.758-.008s.042-11.969.042-11.006a4.317,4.317,0,0,1,.4-1.605c.3-.406.84-.358,1.382-.535.112,0,6.492-.139,9.944.981C138.434,133.379,146.851,139.035,146.416,138.749Zm25.492,16.642a13.183,13.183,0,1,0,13.229,13.183A13.206,13.206,0,0,0,171.908,155.39Zm0,22.6a9.416,9.416,0,1,1,9.449-9.416A9.433,9.433,0,0,1,171.908,177.989Zm2.227-9.416a.514.514,0,1,0,.514-.512A.513.513,0,0,0,174.136,168.573Zm-3.954-3.638c.119-.056.241-.107.365-.152v-4.146A8.05,8.05,0,0,0,167.24,162Zm1.727,1.419a.512.512,0,1,0-.514-.512A.513.513,0,0,0,171.908,166.353ZM176.577,162a8.051,8.051,0,0,0-3.307-1.366v4.146c.125.044.247.1.366.151Zm-8.32,4.85-2.942-2.931a7.993,7.993,0,0,0-1.371,3.3h4.161C168.15,167.092,168.2,166.97,168.257,166.852Zm1.425,1.721a.514.514,0,1,0-.514.512A.513.513,0,0,0,169.681,168.573Zm-2.441,6.571a8.055,8.055,0,0,0,3.307,1.366v-4.146c-.125-.045-.247-.1-.366-.152Zm.865-5.214h-4.161a7.992,7.992,0,0,0,1.371,3.3l2.942-2.932A3.944,3.944,0,0,1,168.1,169.929Z" transform="translate(-57.436 -127.998)" fill="#fcfcfc"/>
    </g>
  </g>
</svg>
